<?xml version="1.0" encoding="UTF-8" standalone="no"?>
<!-- Created with Inkscape (http://www.inkscape.org/) -->
<!-- Author: Hanlin Chong https://github.com/hanlinC -->

<svg
   xmlns:dc="http://purl.org/dc/elements/1.1/"
   xmlns:cc="http://creativecommons.org/ns#"
   xmlns:rdf="http://www.w3.org/1999/02/22-rdf-syntax-ns#"
   xmlns:svg="http://www.w3.org/2000/svg"
   xmlns="http://www.w3.org/2000/svg"
   version="1.1"
   width="1530"
   height="990"
   id="svg2">
  <defs
     id="defs4" />
  <metadata
     id="metadata7">
    <rdf:RDF>
      <cc:Work
         rdf:about="">
        <dc:format>image/svg+xml</dc:format>
        <dc:type
           rdf:resource="http://purl.org/dc/dcmitype/StillImage" />
        <dc:title></dc:title>
      </cc:Work>
    </rdf:RDF>
  </metadata>
  <g
     transform="translate(0,-62.362194)"
     id="layer1">
    <path
       d="m 159.6041,882.65656 c 2.0203,-676.8022 579.82756,-632.35549 579.82756,-632.35549 496.65394,1.1794 544.00234,361.56217 585.88844,630.33518 z"
       id="path3005"
       style="fill:#d40000;fill-opacity:1;fill-rule:nonzero;stroke:#000000;stroke-linecap:butt;stroke-linejoin:miter;stroke-opacity:1" />
    <path
       d="m 743.47227,222.0168 c -77.82755,2.41679 -151.2627,16.57905 -208.66213,47.30386 -25.20879,16.26841 -37.66235,31.26129 -43.876,45.63018 60.42514,18.87182 98.27703,11.40818 136.42135,4.28571 41.77401,42.57244 77.73481,50.26567 116.11678,72.48588 26.6467,-19.26921 54.07627,-37.88603 69.64977,-66.38291 57.32313,20.05311 112.35438,28.64688 165.87168,29.67079 5.8127,-25.93525 -5.4213,-38.61987 -42.8931,-85.01125 C 880.61906,239.67174 808.45223,225.87697 743.47227,222.0168 z"
       id="path3007"
       style="fill:#008000;fill-opacity:1;fill-rule:nonzero;stroke:#000000;stroke-linecap:butt;stroke-linejoin:miter;stroke-opacity:1" />
    <path
       d="m 923.00822,71.507499 c -5.6513,-0.017 -9.6084,2.47107 -14.875,3.03125 -14.2059,2.746252 -27.58491,6.3982 -41.15625,13.625 -10.33259,4.063766 -20.45601,9.211954 -30.3125,15.656251 -4.23181,4.49384 -8.71913,9.06537 -12.96875,13.59375 -8.02197,0.92775 -16.15394,2.55105 -24.15625,4.59375 -18.81226,5.94745 -36.41214,13.40485 -52.53125,22.71875 -6.83997,3.89211 -14.53133,5.24397 -18.1875,18.6875 0,0 -9.09818,54.56963 -45.96875,81.84375 22.9134,1.93141 36.67868,10.28301 52.53125,16.65625 18.34097,-7.89903 36.78604,-9.09999 52.53125,-15.65625 -10.10153,-4.35689 -20.21097,-15.33624 -30.3125,-31.8125 l -8.8125,-23.5 c -1.03214,-8.96144 -2.15357,-17.91385 0.75,-27.53125 12.48773,-12.7544 29.32468,-18.37072 44.9375,-26.75 5.27217,-0.82641 10.54033,-2.00104 15.8125,-3.125 -2.71043,4.05227 -4.65326,7.98253 -5.375,11.6875 -6.69675,13.32316 -11.86366,20.99264 -11.03125,29.15625 12.79057,21.00258 27.19629,22.34374 33.78125,24.34375 18.72625,-0.34725 28.51958,-3.95989 41.0625,-12.875 6.65628,-9.5996 11.14604,-20.3554 11.625,-33.28125 -0.0763,-15.07423 -5.91969,-23.68062 -17.46875,-32.09375 -5.57545,-1.95705 -11.51879,-3.09298 -17.6875,-3.59375 1.87368,-2.08268 3.88748,-4.2494 6.125,-6.5 8.5444,-5.89217 18.03042,-9.83317 27.5,-13.875001 12.2688,-4.228888 23.7005,-5.866526 34.625,-6.0625 12.6156,-2.535626 14.5119,-10.121276 15.9063,-17.9375 -2.3661,-0.729156 -4.46,-0.994335 -6.3438,-1 z m -80.5625,58.093751 c 6.64698,0.0337 10.84645,2.68533 15.4375,4.28125 4.95947,6.21339 8.31324,13.77094 7.8125,19.9375 2.53458,8.97597 -0.77634,16.40955 -5.3125,23.5 0.17504,3.96124 -18.77328,11.90632 -28.53125,9.84375 -8.93363,-1.88833 -21.77615,-13.17852 -21.71875,-14.125 -1.67944,-8.5373 5.04325,-15.29768 9.59375,-22.5 5.45039,-7.08116 9.67728,-13.57872 14.78125,-20.5 0.96712,-0.0204 1.93913,-0.0237 2.90625,0 1.83103,-0.31754 3.49733,-0.44527 5.03125,-0.4375 z"
       id="path3779"
       style="fill:#008000;fill-opacity:1;fill-rule:nonzero;stroke:#000000;stroke-linecap:butt;stroke-linejoin:miter;stroke-opacity:1" />
    <path
       d="m 823.45832,117.53998 c 21.90051,-0.6769 22.10042,-0.63218 22.09709,-0.63135 z"
       id="path3829"
       style="fill:none;stroke:#000000;stroke-linecap:butt;stroke-linejoin:miter;stroke-opacity:1" />
    <path
       d="m 811.05184,133.26813 c 24.62246,-3.59866 23.42794,-3.2785 23.42794,-3.2785 -7.80931,1.09283 -26.85665,4.43327 -23.42794,3.2785 z"
       id="path3831"
       style="fill:none;stroke:#000000;stroke-linecap:butt;stroke-linejoin:miter;stroke-opacity:1" />
    <path
       d="m 1618.2643,828.37561 a 756.60425,58.588848 0 1 1 -1513.20845,0 756.60425,58.588848 0 1 1 1513.20845,0 z"
       transform="matrix(0.9431664,0,0,1.2405107,-65.177482,-153.03342)"
       id="path3833"
       style="fill:#d40000;fill-opacity:1;fill-rule:nonzero;stroke:#000000;stroke-linecap:butt;stroke-linejoin:miter;stroke-opacity:1" />
    <path
       d="m 1299.0562,818.27405 a 571.74634,38.385796 0 1 1 -1143.49272,0 571.74634,38.385796 0 1 1 1143.49272,0 z"
       transform="translate(0,62.362194)"
       id="path3835"
       style="fill:#000000;fill-opacity:1;fill-rule:nonzero;stroke:#000000;stroke-linecap:butt;stroke-linejoin:miter;stroke-opacity:1" />
  </g>
</svg>
